<svg width="200" height="200" viewBox="0 0 200 200" fill="none" xmlns="http://www.w3.org/2000/svg">
<path d="M79.9699 78.3403C80.0978 77.7757 80.9022 77.7757 81.0301 78.3403L81.1646 78.934C81.7548 81.5396 83.8396 83.5436 86.4665 84.0305C86.9872 84.127 86.9872 84.873 86.4665 84.9695C83.8396 85.4564 81.7548 87.4604 81.1646 90.066L81.0301 90.6597C80.9022 91.2243 80.0978 91.2243 79.9699 90.6597L79.8354 90.066C79.2452 87.4604 77.1604 85.4564 74.5335 84.9695C74.0128 84.873 74.0128 84.127 74.5335 84.0305C77.1604 83.5436 79.2452 81.5396 79.8354 78.934L79.9699 78.3403Z" fill="#9747FF"/>
<path d="M100.305 49.0313C100.4 48.2049 101.6 48.2049 101.695 49.0313L102.409 55.222C102.765 58.3114 105.117 60.7954 108.182 61.32L113.968 62.31C114.744 62.4428 114.744 63.5572 113.968 63.69L108.182 64.68C105.117 65.2046 102.765 67.6886 102.409 70.778L101.695 76.9687C101.6 77.7951 100.4 77.7951 100.305 76.9687L99.5908 70.778C99.2346 67.6886 96.8829 65.2046 93.8176 64.68L88.032 63.69C87.2561 63.5572 87.2561 62.4428 88.032 62.31L93.8176 61.32C96.8829 60.7954 99.2346 58.3114 99.5908 55.222L100.305 49.0313Z" fill="url(#paint0_linear_228_1547)"/>
<defs>
<linearGradient id="paint0_linear_228_1547" x1="84" y1="63.0501" x2="121.835" y2="63.0501" gradientUnits="userSpaceOnUse">
<stop stop-color="#01F5FF"/>
<stop offset="1" stop-color="#0D95FC"/>
</linearGradient>
</defs>
</svg>
