<svg width="200" height="200" viewBox="0 0 200 200" fill="none" xmlns="http://www.w3.org/2000/svg">
<path d="M109.03 88.8411C109.285 87.8341 110.715 87.834 110.97 88.841L111.425 90.6465C112.767 95.9629 117.172 100.022 122.566 101.007C123.659 101.207 123.659 102.793 122.566 102.993C117.172 103.978 112.767 108.037 111.425 113.353L110.97 115.159C110.715 116.166 109.285 116.166 109.03 115.159L108.575 113.353C107.233 108.037 102.828 103.978 97.4342 102.993C96.3405 102.793 96.3405 101.207 97.4342 101.007C102.828 100.022 107.233 95.9629 108.575 90.6465L109.03 88.8411Z" fill="url(#paint0_linear_228_1511)"/>
<path d="M100.305 56.9804C100.401 56.1548 101.599 56.1548 101.695 56.9804L101.813 57.9898C102.172 61.08 104.528 63.5622 107.595 64.0827L108.933 64.3099C109.71 64.4418 109.71 65.5582 108.933 65.6901L107.595 65.9173C104.528 66.4378 102.172 68.92 101.813 72.0102L101.695 73.0196C101.599 73.8452 100.401 73.8452 100.305 73.0196L100.187 72.0102C99.828 68.92 97.4724 66.4378 94.4053 65.9173L93.0668 65.6901C92.2896 65.5582 92.2896 64.4418 93.0668 64.3099L94.4053 64.0827C97.4724 63.5622 99.828 61.08 100.187 57.9898L100.305 56.9804Z" fill="#FF9501"/>
<defs>
<linearGradient id="paint0_linear_228_1511" x1="92" y1="102.043" x2="132.06" y2="102.043" gradientUnits="userSpaceOnUse">
<stop stop-color="#01F5FF"/>
<stop offset="1" stop-color="#0D95FC"/>
</linearGradient>
</defs>
</svg>
