<svg width="200" height="200" viewBox="0 0 200 200" fill="none" xmlns="http://www.w3.org/2000/svg">
<path d="M109.757 96.0201C109.818 95.764 110.182 95.764 110.243 96.0201L110.888 98.7229C111.206 100.06 112.278 101.087 113.627 101.348L115.731 101.755C116.001 101.807 116.001 102.193 115.731 102.245L113.627 102.652C112.278 102.913 111.206 103.94 110.888 105.277L110.243 107.98C110.182 108.236 109.818 108.236 109.757 107.98L109.112 105.277C108.794 103.94 107.722 102.913 106.373 102.652L104.269 102.245C103.999 102.193 103.999 101.807 104.269 101.755L106.373 101.348C107.722 101.087 108.794 100.06 109.112 98.7229L109.757 96.0201Z" fill="url(#paint0_linear_228_1529)"/>
<path d="M100.826 62.9951C100.85 62.7887 101.15 62.7887 101.174 62.9951L101.203 63.2475C101.293 64.02 101.882 64.6406 102.649 64.7707L102.983 64.8275C103.178 64.8604 103.178 65.1396 102.983 65.1725L102.649 65.2293C101.882 65.3594 101.293 65.98 101.203 66.7525L101.174 67.0049C101.15 67.2113 100.85 67.2113 100.826 67.0049L100.797 66.7525C100.707 65.98 100.118 65.3594 99.3513 65.2293L99.0167 65.1725C98.8224 65.1396 98.8224 64.8604 99.0167 64.8275L99.3513 64.7707C100.118 64.6406 100.707 64.02 100.797 63.2475L100.826 62.9951Z" fill="#FF9501"/>
<defs>
<linearGradient id="paint0_linear_228_1529" x1="103" y1="102.018" x2="118.579" y2="102.018" gradientUnits="userSpaceOnUse">
<stop stop-color="#01F5FF"/>
<stop offset="1" stop-color="#0D95FC"/>
</linearGradient>
</defs>
</svg>
